<?xml version="1.0" encoding="UTF-8" standalone="no"?><!DOCTYPE svg PUBLIC "-//W3C//DTD SVG 1.1//EN" "http://www.w3.org/Graphics/SVG/1.1/DTD/svg11.dtd"><svg width="100%" height="100%" viewBox="0 0 960 1080" version="1.1" xmlns="http://www.w3.org/2000/svg" xmlns:xlink="http://www.w3.org/1999/xlink" xml:space="preserve" xmlns:serif="http://www.serif.com/" style="fill-rule:evenodd;clip-rule:evenodd;stroke-linejoin:round;stroke-miterlimit:2;"><path id="_4_R" serif:id="4_R" d="M725.879,166.695c-25.774,57.995 -61.699,215.058 -89.262,281.405c-0.606,1.458 -1.202,2.708 -1.808,4.013c-3.406,7.029 -13.96,19.292 -20.238,13.403c-10.059,-9.448 -11.135,-25.923 -12.181,-31.276c-7.526,-84.592 -9.656,-222.341 -5.021,-282.111c6.747,-87.174 -66.526,-99.792 -81.441,-13.253c-3.708,21.487 -2.469,107.51 -5.618,178.396c-2.597,58.465 -1.358,97.718 -6.012,125.411c-1.551,9.194 -3.194,18.401 -5.993,24.359c-0.009,0.018 -10.09,23.689 -25.507,11.052c-12.677,-10.391 -18.826,-31.906 -18.826,-31.906c-32.189,-79.564 -66.902,-229.587 -75.145,-249.037c-44.213,-104.294 -87.095,-62.017 -77.183,9.893c4.819,34.967 54.641,200.961 79.037,296.487c0.358,1.413 0.585,-0.565 0.704,0.821c-0.339,-2.555 -0.704,-0.821 -0.704,-0.821c-0,-0 0.936,5.377 -1.067,9.043c-1.747,3.196 -7.209,4.851 -10.304,3.59c-6.181,-2.518 -17.221,-18.389 -17.221,-18.389c-17.485,-27.077 -37.127,-54.649 -47.425,-70.62c-38.183,-59.235 -72.373,-108.515 -89.124,-123.263c-29.5,-25.963 -72.988,-4.584 -43.488,49.724c40.239,74.101 107.417,184.538 128.152,240.802c16.282,44.189 24.111,135.838 40.615,189.819c16.503,53.982 33.006,116.416 35.759,146.283c2.754,29.858 -0,149.48 -0,149.48l258.332,-0c-0,-0 -4.966,-147.224 3.286,-171.656c8.508,-25.184 15.42,-35.674 56.677,-103.806c2.864,-4.719 5.59,-13.117 7.986,-23.942c7.334,-33.255 14.087,-106.396 7.671,-154.861c4.296,-41.48 5.693,-67.815 8.373,-81.992c5.792,-30.528 41.817,-197.691 76.751,-352.616c13.254,-58.81 -38.476,-94.864 -69.775,-24.432Z" style="fill-rule:nonzero;"/></svg>